#!OML:ASF I:\golf\golf\golf 2\Subject 1\2002-09-07\Subject1.ASF
:FULLY-SPECIFIED
:DEGREES
291
root -7.50131 18.075 -0.494487 -176.17 50.1203 -187.254
lowerback -6.08164 -6.82846 5.14307
upperback 4.27184 -9.49255 13.5976
thorax 9.7164 -4.42505 10.8204
lowerneck -12.7965 -6.27237 0.667317
upperneck 27.7755 -3.73524 -14.6076
head 10.7158 -2.88125 -5.8334
rclavicle 5.08889e-014 1.36764e-013
rhumerus -10.5764 10.0389 -83.1651
rradius 63.0017
rwrist -65.811
rhand -62.2167 12.1498
rfingers 7.12502
rthumb -34.2595 -14.5759
lclavicle 5.08889e-014 1.36764e-013
lhumerus 34.2704 -65.43 82.0172
lradius 18.6513
lwrist -9.40917
lhand 164.884 213.821
lfingers 7.12502
lthumb -168.947 243.51
rfemur -11.9955 -4.57114 3.62863
rtibia 38.1736
rfoot -10.6969 -26.2448
rtoes 10.0047
lfemur -19.9134 -0.673 -21.7234
ltibia 9.01188
lfoot 5.32895 -30.0909
ltoes 5.14345
292
root -7.48353 18.0816 -0.545188 -176.59 48.6968 -187.088
lowerback -6.62494 -6.40065 5.53862
upperback 4.05747 -8.95196 13.7381
thorax 9.66329 -4.10809 10.8093
lowerneck -12.0137 -7.22999 0.257265
upperneck 27.852 -5.06211 -14.2633
head 10.4836 -3.4462 -5.73235
rclavicle -5.88403e-014 -1.68569e-013
rhumerus -10.4372 12.1383 -84.855
rradius 59.3274
rwrist -68.8352
rhand -60.5263 10.2356
rfingers 7.12502
rthumb -32.6527 -16.8372
lclavicle -5.88403e-014 -1.68569e-013
lhumerus 30.5704 -65.648 83.0881
lradius 18.7651
lwrist -7.21631
lhand 166.967 217.867
lfingers 7.12502
lthumb -166.938 247.438
rfemur -11.0654 -3.97603 3.55183
rtibia 38.6972
rfoot -10.1546 -26.4662
rtoes 12.2966
lfemur -18.7646 -1.17973 -21.8702
ltibia 8.00811
lfoot 6.93418 -30.4786
ltoes 8.15228
293
root -7.46843 18.0894 -0.60094 -177.142 47.1336 -186.967
lowerback -7.0442 -5.87949 6.07807
upperback 3.77675 -8.26491 13.8301
thorax 9.40916 -3.70453 10.6894
lowerneck -11.043 -8.38401 -0.349841
upperneck 27.9107 -6.65819 -13.7852
head 10.2172 -4.13274 -5.55642
rclavicle -6.83819e-014 -2.73528e-013
rhumerus -10.315 13.7408 -86.3199
rradius 55.6611
rwrist -71.3146
rhand -58.3274 7.50096
rfingers 7.12502
rthumb -30.5582 -19.9838
lclavicle -6.83819e-014 -2.73528e-013
lhumerus 26.4458 -65.8031 85.0343
lradius 18.9737
lwrist -5.25443
lhand 169.633 222.464
lfingers 7.12502
lthumb -164.37 251.852
rfemur -9.97093 -3.54077 3.45737
rtibia 39.1356
rfoot -8.97803 -26.8242
rtoes 12.382
lfemur -17.5747 -1.82692 -22.0696
ltibia 7.0888
lfoot 8.47425 -30.9433
ltoes 10.7882
294
root -7.45045 18.095 -0.65264 -177.793 45.6393 -186.911
lowerback -7.38844 -5.07782 6.58498
upperback 3.55312 -7.19699 13.8029
thorax 9.11347 -3.11708 10.5138
lowerneck -10.3532 -9.73766 -0.808372
upperneck 28.1142 -8.58609 -13.1976
head 10.0527 -4.9572 -5.41714
rclavicle 8.5875e-014 -9.54166e-014
rhumerus -9.83632 14.2573 -87.6093
rradius 51.8327
rwrist -72.4968
rhand -54.3495 2.33907
rfingers 7.12502
rthumb -26.7579 -25.7886
lclavicle 8.5875e-014 -9.54166e-014
lhumerus 21.6347 -64.9544 88.7202
lradius 18.1568
lwrist -4.81238
lhand 171.905 225.486
lfingers 7.12502
lthumb -162.183 254.689
rfemur -8.81965 -2.99114 3.36701
rtibia 39.465
rfoot -7.52108 -27.1473
rtoes 12.1163
lfemur -16.3816 -2.39707 -22.3199
ltibia 6.29255
lfoot 9.81097 -31.427
ltoes 12.9992
295
root -7.42778 18.0962 -0.710196 -178.462 44.3106 -187.077
lowerback -7.73674 -4.30231 6.67043
upperback 3.31351 -6.136 13.8369
thorax 8.88457 -2.57066 10.6565
lowerneck -9.92938 -10.9768 -1.07931
upperneck 28.4003 -10.3139 -12.8471
head 9.98132 -5.70338 -5.39135
rclavicle 5.56597e-014 1.36764e-013
rhumerus -9.01877 14.8136 -88.6656
rradius 47.9266
rwrist -72.2085
rhand -49.0755 -2.87215
rfingers 7.12502
rthumb -21.7016 -31.6758
lclavicle 5.56597e-014 1.36764e-013
lhumerus 18.4088 -64.6113 91.0779
lradius 17.6648
lwrist -2.70383
lhand 174.249 230.375
lfingers 7.12502
lthumb -159.928 259.358
rfemur -7.79203 -2.51711 3.07292
rtibia 39.6974
rfoot -5.87138 -27.2616
rtoes 11.6429
lfemur -15.2543 -2.81804 -22.7792
ltibia 5.4941
lfoot 11.0639 -31.8279
ltoes 14.9508
296
root -7.41193 18.0865 -0.781778 -179.15 42.7386 -187.401
lowerback -8.05334 -3.79209 6.61155
upperback 2.92673 -5.39194 13.9449
thorax 8.54542 -2.18905 10.9166
lowerneck -9.30137 -12.0452 -1.49534
upperneck 28.633 -11.7507 -12.5613
head 9.89541 -6.32734 -5.31785
rclavicle -3.49861e-014 2.8625e-014
rhumerus -8.16004 15.8543 -89.5652
rradius 43.9718
rwrist -70.6959
rhand -43.4499 -6.22154
rfingers 7.12502
rthumb -16.2916 -35.5572
lclavicle -3.49861e-014 2.8625e-014
lhumerus 15.2222 -63.4386 93.6695
lradius 16.9096
lwrist -0.206692
lhand 175.931 235.298
lfingers 7.12502
lthumb -158.312 264.104
rfemur -6.66594 -2.59306 2.52922
rtibia 39.8676
rfoot -4.35064 -27.0817
rtoes 11.1052
lfemur -14.1221 -3.50299 -23.4483
ltibia 4.61298
lfoot 12.8845 -31.8164
ltoes 18.0328
297
root -7.3746 18.0844 -0.831781 -179.541 41.9165 -187.461
lowerback -8.34942 -3.00812 6.37423
upperback 2.64308 -4.26881 14.1
thorax 8.2684 -1.63186 11.412
lowerneck -8.59898 -13.1033 -1.88155
upperneck 28.813 -13.2202 -12.1605
head 9.79461 -6.94959 -5.19934
rclavicle -3.89618e-014 -1.46306e-013
rhumerus -6.88176 16.6298 -90.3897
rradius 39.8623
rwrist -68.3678
rhand -37.8966 -8.45587
rfingers 7.12502
rthumb -10.9395 -38.1509
lclavicle -3.89618e-014 -1.46306e-013
lhumerus 12.5363 -61.9194 96.0446
lradius 16.0163
lwrist 2.94696
lhand 177.415 239.678
lfingers 7.12502
lthumb -156.888 268.312
rfemur -5.84649 -1.95407 2.38158
rtibia 39.9378
rfoot -3.33096 -27.01
rtoes 11.2477
lfemur -13.1212 -3.39804 -23.8113
ltibia 3.88549
lfoot 14.8056 -31.5462
ltoes 22.1155
298
root -7.36279 18.0731 -0.88429 -180.102 40.1435 -187.501
lowerback -8.31669 -2.62505 6.20694
upperback 2.22767 -3.59473 14.3571
thorax 7.71268 -1.27444 11.9089
lowerneck -7.82267 -14.0719 -2.38271
upperneck 28.8576 -14.5208 -11.8725
head 9.65934 -7.5158 -5.07022
rclavicle -2.38542e-014 -6.36111e-014
rhumerus -5.24918 17.7875 -90.9114
rradius 35.7528
rwrist -65.5743
rhand -31.7393 -11.5227
rfingers 7.12502
rthumb -4.99705 -41.4438
lclavicle -2.38542e-014 -6.36111e-014
lhumerus 10.1428 -59.2819 98.5844
lradius 15.0764
lwrist 6.24104
lhand 179.656 243.108
lfingers 7.12502
lthumb -154.739 88.5448
rfemur -4.46625 -2.03681 2.22283
rtibia 39.8971
rfoot -2.75484 -27.0039
rtoes 11.5362
lfemur -12.2656 -4.23513 -24.2185
ltibia 3.61838
lfoot 15.911 -31.6923
ltoes 24.1528
